<?xml version="1.0" standalone="no"?>
<!DOCTYPE svg PUBLIC "-//W3C//DTD SVG 20010904//EN"
 "http://www.w3.org/TR/2001/REC-SVG-20010904/DTD/svg10.dtd">
<svg version="1.0" xmlns="http://www.w3.org/2000/svg"
 width="64.000000pt" height="64.000000pt" viewBox="0 0 64.000000 64.000000"
 preserveAspectRatio="xMidYMid meet">

<g transform="translate(0.000000,64.000000) scale(0.100000,-0.100000)"
fill="#000000" stroke="none">
<path d="M0 320 l0 -320 320 0 320 0 0 320 0 320 -320 0 -320 0 0 -320z m400
221 c5 -11 10 -36 10 -56 0 -47 -15 -75 -41 -75 -15 0 -20 -5 -17 -22 3 -21 9
-23 66 -26 l62 -3 0 -34 c0 -28 4 -35 19 -35 31 0 42 -24 39 -87 l-3 -58 -58
-3 c-75 -4 -87 6 -87 72 0 55 12 76 42 76 11 0 18 7 18 20 0 19 -7 20 -120 20
-113 0 -120 -1 -120 -20 0 -13 7 -20 18 -20 29 0 42 -21 42 -71 0 -74 -4 -79
-69 -79 -31 0 -62 5 -69 12 -16 16 -16 110 0 126 7 7 20 12 29 12 13 0 19 10
21 33 3 31 4 32 58 35 80 5 107 34 50 53 -29 11 -30 13 -30 74 0 72 1 73 77
74 42 1 54 -3 63 -18z"/>
<path d="M297 524 c-4 -4 -7 -25 -7 -46 0 -38 0 -38 41 -38 l40 0 -3 43 c-3
39 -5 42 -33 45 -17 2 -34 0 -38 -4z"/>
<path d="M154 246 c-3 -8 -4 -27 -2 -43 3 -25 7 -28 46 -31 l42 -3 0 45 0 46
-40 0 c-26 0 -43 -5 -46 -14z"/>
<path d="M424 246 c-3 -8 -4 -27 -2 -43 3 -25 7 -28 46 -31 l42 -3 0 45 0 46
-40 0 c-26 0 -43 -5 -46 -14z"/>
</g>
</svg>
